<svg height='100px' width='100px'  fill="#000000" xmlns:dc="http://purl.org/dc/elements/1.1/" xmlns:cc="http://creativecommons.org/ns#" xmlns:rdf="http://www.w3.org/1999/02/22-rdf-syntax-ns#" xmlns:svg="http://www.w3.org/2000/svg" xmlns="http://www.w3.org/2000/svg" xmlns:sodipodi="http://sodipodi.sourceforge.net/DTD/sodipodi-0.dtd" xmlns:inkscape="http://www.inkscape.org/namespaces/inkscape" version="1.1" x="0px" y="0px" viewBox="0 0 100 100"><g transform="translate(0,-952.36218)"><path d="m 40.996546,1049.6141 c -0.108719,-0.1759 0.824894,-1.4542 2.074701,-2.8405 1.249805,-1.3865 2.629252,-3.2321 3.065435,-4.1014 0.436187,-0.8694 1.062419,-2.0255 1.391626,-2.5691 0.770321,-1.2719 0.446453,-1.5802 -0.739186,-0.7036 -1.825358,1.3495 -2.409257,0.179 -1.25228,-2.5105 0.683435,-1.5887 0.618646,-2.5808 -0.149296,-2.286 -0.24612,0.094 -1.031628,1.0044 -1.745577,2.0222 -0.713949,1.0178 -1.628672,2.0672 -2.032715,2.332 -1.277952,0.8373 -1.486103,0.3347 -1.254437,-3.0289 0.195943,-2.845 0.170555,-3.0588 -0.3632,-3.0588 -0.650507,0 -1.975702,1.3243 -3.490529,3.4882 -1.085287,1.5502 -2.133271,2.4068 -2.944699,2.4068 -0.407568,0 -0.45242,-0.2657 -0.275001,-1.6289 0.1166,-0.8958 0.452006,-2.6442 0.745351,-3.8853 0.303443,-1.2838 0.412355,-2.3312 0.252659,-2.43 -0.383538,-0.237 -2.568714,0.9269 -4.446394,2.3684 -3.716138,2.8527 -6.325802,8.1825 -6.874689,14.0402 -0.108433,1.1573 -0.331922,2.1874 -0.496641,2.2892 -0.637839,0.3942 -0.874206,-0.7972 -0.78365,-3.9501 0.08809,-3.0666 0.168789,-3.4299 1.240897,-5.5847 0.630674,-1.2676 1.85097,-3.1696 2.711767,-4.2264 0.860793,-1.057 1.565081,-2.1204 1.565081,-2.3631 0,-0.5661 -3.64464,-2.1991 -5.993185,-2.6853 -1.031618,-0.2136 -2.458332,-0.2837 -3.330713,-0.1638 -1.428454,0.1965 -1.589173,0.1467 -2.512377,-0.7764 -0.542466,-0.5425 -1.327931,-1.1162 -1.74548,-1.2749 -0.663268,-0.2522 -0.731579,-0.4154 -0.540695,-1.2916 0.120168,-0.5517 0.226017,-1.4917 0.235219,-2.0889 0.01685,-1.0942 -2.180699,-6.7585 -4.0573152,-10.4579 -2.1416368,-4.2219 -3.2042536,-8.7806 -3.7573155,-16.11904 -0.6928823,-9.19373 0.6217755,-14.61887 5.1882857,-21.41025 4.105778,-6.10615 7.780477,-10.14287 11.314276,-12.42887 5.731053,-3.7074 18.705905,-7.85133 26.142048,-8.34929 1.365158,-0.0914 3.040577,-0.37996 3.723156,-0.6412 1.694579,-0.64855 6.279585,-0.63731 8.842494,0.0217 3.547001,0.91201 7.694574,2.68294 9.643279,4.1175 1.040974,0.76632 2.857355,2.01165 4.036403,2.76741 1.179053,0.75575 2.143729,1.58085 2.143729,1.83355 0,0.25271 0.426909,0.68022 0.948688,0.95005 1.00366,0.51901 2.748036,2.99217 3.980201,5.64306 0.504724,1.08589 0.973748,1.65138 1.47375,1.77688 0.56967,0.14297 0.733409,0.39447 0.733409,1.1265 0,0.51836 0.507506,2.15621 1.127793,3.6397 0.857315,2.05035 1.224807,3.51575 1.532299,6.11013 0.263013,2.21907 0.670255,4.00978 1.164231,5.11935 0.582577,1.30852 0.957998,3.27941 1.610069,8.45242 0.730747,5.7971 0.82758,7.4772 0.688458,11.945 -0.174846,5.6153 -0.706022,8.3832 -2.394622,12.478 -0.477029,1.1569 -0.763163,2.2719 -0.635853,2.4779 0.127307,0.206 1.332325,1.0967 2.677818,1.9796 3.11911,2.0464 3.835663,3.2096 3.842861,6.2385 0.0038,1.5663 -0.173903,2.5212 -0.653011,3.5109 -1.148798,2.3732 -4.600297,4.0681 -8.840173,4.3412 -4.046093,0.2607 -7.35695,-0.7885 -10.866523,-3.4436 -2.793427,-2.1133 -3.621805,-1.9657 -9.069854,1.6165 -1.631875,1.073 -3.673442,2.1298 -4.653944,2.4091 -0.960724,0.2736 -1.855488,0.5978 -1.988364,0.7203 -0.132876,0.1225 0.05585,0.6008 0.419389,1.0631 0.718218,0.913 1.55613,3.9561 1.634607,5.9366 0.04345,1.0967 -0.03903,1.2535 -0.709096,1.3481 -1.006596,0.1421 -1.5687,-0.676 -1.5687,-2.2829 0,-1.7576 -0.812702,-3.9925 -1.859238,-5.1129 -0.851097,-0.911 -0.942033,-0.9332 -3.82467,-0.9332 l -2.952844,0 -0.605975,1.0083 c -0.333287,0.5547 -0.689199,1.3637 -0.790915,1.798 -0.188582,0.8052 -4.829948,5.5708 -5.425566,5.5708 -0.18017,0 -0.416534,-0.1439 -0.525257,-0.3198 z m 10.808262,-11.5905 c 0.543208,-0.4076 1.748022,-1.1219 2.677364,-1.5875 0.929341,-0.4655 2.514769,-1.6329 3.523176,-2.5944 3.861142,-3.681 4.040815,-6.6873 0.424033,-7.095 -1.334453,-0.1504 -1.39353,-0.1188 -2.329395,1.2414 -0.650597,0.9455 -1.962491,2.0565 -4.068528,3.4452 -3.215804,2.1206 -4.978861,4.019 -4.978861,5.361 0,0.5486 0.172767,0.7296 0.698092,0.7312 0.383951,0 1.116946,0.2794 1.628881,0.6184 1.17355,0.7773 1.23264,0.7743 2.425238,-0.1203 z m 32.420418,-3.1094 c 1.521822,-1.651 2.760621,-4.0057 3.045862,-5.7894 0.25318,-1.5834 -0.298319,-2.1503 -2.091642,-2.1503 -1.378029,0 -2.625655,0.9409 -4.0584,3.0607 -0.534559,0.791 -1.647156,2.1627 -2.472436,3.0484 -0.825278,0.8857 -1.500507,1.7381 -1.500507,1.8942 0,0.3915 2.97923,1.2245 4.536864,1.2684 1.134905,0.032 1.421278,-0.1181 2.540259,-1.332 z m -41.076687,0.034 c 0.242328,-0.3842 0.18695,-0.9208 -0.210532,-2.04 -0.296645,-0.8352 -0.539354,-1.7405 -0.539354,-2.0119 0,-0.2714 -0.414726,-0.7078 -0.921609,-0.9699 -0.506886,-0.2622 -1.720718,-1.0364 -2.697407,-1.7206 -2.842653,-1.9912 -6.89892,-2.9222 -15.536904,-3.5656 -3.339683,-0.2488 -3.432606,-0.1733 -2.990792,2.4305 0.316161,1.8632 0.538625,2.0148 5.622759,3.832 l 2.983256,1.0663 1.26318,-0.9604 c 1.457664,-1.1082 3.515803,-2.1562 4.253876,-2.166 0.279721,0 0.836019,0.2583 1.236215,0.5823 0.70138,0.568 0.712404,0.6435 0.305611,2.0943 -0.745043,2.6571 -0.765512,2.9013 -0.243255,2.9013 0.265827,0 1.215382,-0.702 2.110131,-1.5598 1.633432,-1.5661 2.661908,-2.0737 3.528324,-1.7412 0.347056,0.1332 0.466089,0.6832 0.466089,2.1536 0,1.086 0.09599,2.0706 0.213305,2.1881 0.302979,0.3029 0.774181,0.094 1.157107,-0.513 z m 25.360174,-0.4023 c 0.680634,-0.4206 0.118456,-0.746 -1.289024,-0.746 -1.375532,0 -1.551315,0.075 -1.551315,0.6601 0,0.6007 0.116451,0.6416 1.289024,0.4541 0.708964,-0.1133 1.407055,-0.279 1.551315,-0.3682 z m 0.956036,-4.3916 c 0.612999,-0.4693 1.904176,-1.7879 2.869283,-2.9303 2.604304,-3.0827 3.657374,-3.5076 8.692358,-3.5076 l 4.033419,0 0.84986,-1.7064 c 1.899166,-3.8134 2.226046,-5.9158 2.21905,-14.2721 -0.007,-8.36574 -0.0443,-8.65373 -2.906314,-22.4435 -1.314133,-6.33171 -2.257048,-9.4439 -2.940775,-9.70626 -0.214853,-0.0824 -1.810251,0.27182 -3.545331,0.78726 -4.552342,1.35241 -9.28161,2.20187 -13.447475,2.41543 -3.281456,0.16823 -3.657721,0.13326 -3.84593,-0.35721 -0.293635,-0.76519 0.227442,-0.98945 2.778414,-1.19584 1.222498,-0.0989 4.474354,-0.74457 7.226347,-1.43481 2.751991,-0.69024 5.943152,-1.38802 7.091463,-1.55067 1.148314,-0.16261 2.162791,-0.3706 2.254396,-0.46222 0.26519,-0.26518 -1.026044,-3.12696 -2.227797,-4.93749 -3.720084,-5.60455 -13.298037,-11.19635 -20.488087,-11.96137 -2.693092,-0.28654 -5.659916,-0.0543 -7.146746,0.55929 -0.511934,0.2113 -2.745827,0.51757 -4.964207,0.68061 -2.21838,0.16304 -4.832014,0.49705 -5.808076,0.74225 -2.273328,0.57108 -13.87899,4.79873 -16.241369,5.91631 -2.902473,1.3731 -9.078803,8.09046 -11.819154,12.85451 -0.925825,1.60952 -1.877119,3.14054 -2.1139828,3.40229 -1.5284449,1.68892 -3.2680034,8.62102 -3.2629644,13.00287 0.00355,3.07817 1.1102202,13.00815 1.7157298,15.39495 0.2597584,1.0239 1.6447464,4.3048 3.0777554,7.2911 1.433006,2.9863 2.694731,5.7438 2.803828,6.1278 0.244937,0.862 0.498789,0.8655 2.638647,0.036 2.161242,-0.8368 6.741205,-1.1056 10.286464,-0.6039 3.378786,0.4782 8.677305,1.8836 13.051322,3.4618 4.411434,1.5917 6.100257,1.5581 10.325744,-0.2047 2.616699,-1.0915 2.997311,-1.1654 6.050128,-1.1735 5.231378,-0.014 7.299709,0.9863 8.087348,3.9114 0.711408,2.6421 2.674203,3.4189 4.706652,1.863 z m -30.157811,-11.2266 c -0.5205,-0.9725 -0.396004,-5.1795 0.186989,-6.3186 1.008013,-1.9696 2.457718,-3.7057 3.704676,-4.4365 2.529364,-1.4823 2.284858,-0.7648 -0.785758,2.3058 -1.386736,1.3868 -2.564082,2.8511 -2.687437,3.3426 -0.191143,0.7616 -0.06934,1.607 0.721678,5.0087 0.207039,0.8904 -0.675483,0.9662 -1.140148,0.098 z m 6.194344,-0.2811 c 0,-0.5759 1.896371,-4.0075 2.55824,-4.6293 2.781264,-2.6128 9.644272,-2.9229 16.833195,-0.7605 1.712595,0.5151 1.928023,0.683 2.691825,2.0969 0.456636,0.8453 0.875491,1.9557 0.930789,2.4677 0.154372,1.4291 -0.708423,1.1724 -1.529062,-0.455 -0.384348,-0.7623 -0.873012,-1.5516 -1.085921,-1.7543 -0.593337,-0.5646 -7.279599,-2.3518 -9.456311,-2.5276 -3.219053,-0.26 -4.484219,0.2835 -7.558102,3.2467 -2.451335,2.363 -3.384653,3.0016 -3.384653,2.3154 z m 11.169467,-1.3069 c -0.949867,-0.3191 -2.097464,-0.4975 -2.588381,-0.4026 -0.735767,0.1423 -0.8639,0.075 -0.773116,-0.4034 0.152366,-0.8036 1.814348,-0.904 4.21359,-0.2545 1.88761,0.511 2.470116,1.1173 1.449502,1.509 -0.269922,0.1034 -0.514254,0.174 -0.54296,0.1564 -0.0287,-0.018 -0.820089,-0.2896 -1.758635,-0.6049 z m 16.198977,-2.6985 c -0.328612,-0.4693 -0.97672,-1.7064 -1.44024,-2.7491 -0.50593,-1.1381 -1.453636,-2.4974 -2.371151,-3.4012 -0.840611,-0.8279 -1.528383,-1.6852 -1.528383,-1.9049 0,-1.5134 3.718808,2.1234 5.119671,5.0069 1.210149,2.491 1.62242,3.9015 1.140349,3.9015 -0.177523,0 -0.591634,-0.384 -0.920246,-0.8532 z m -46.604746,-4.2054 c 0,-0.5796 1.786892,-3.3185 2.165009,-3.3185 0.491915,0 0.373959,1.3278 -0.193691,2.1804 -0.905264,1.3595 -1.971318,1.975 -1.971318,1.1381 z m 27.148007,-2.0404 c -1.992855,-0.7206 -3.981383,-1.7403 -4.414942,-2.2638 -0.225086,-0.2718 -0.252197,-0.8824 -0.08021,-1.8066 0.142891,-0.768 0.165618,-1.4926 0.05051,-1.6103 -0.115114,-0.1178 -0.902875,-0.2574 -1.750581,-0.3103 -1.280698,-0.08 -1.616613,-0.2309 -1.98685,-0.8932 -0.530807,-0.9498 -0.275353,-2.31286 0.512445,-2.7345 0.299755,-0.16041 1.079731,-0.39199 1.733284,-0.5146 1.043542,-0.19575 1.175056,-0.15426 1.079734,0.3407 -0.06437,0.33425 -0.524642,0.67148 -1.131013,0.82859 -1.209214,0.31326 -1.6275,1.09701 -0.878041,1.64501 0.388699,0.2842 0.84625,0.3037 1.749731,0.074 0.672867,-0.1708 1.43603,-0.2289 1.695916,-0.1292 0.552918,0.2122 0.634834,1.9053 0.153443,3.1714 -0.251543,0.6616 -0.212735,0.9568 0.183337,1.3944 1.352021,1.4941 4.958418,2.3367 7.94298,1.856 2.429176,-0.3912 5.765412,-1.9852 6.213575,-2.9689 0.461342,-1.0125 0.09837,-2.5469 -0.989507,-4.1829 -0.516215,-0.77634 -0.927826,-1.80947 -0.927115,-2.32702 6.21e-4,-0.51193 -0.238282,-1.86559 -0.531074,-3.00813 -0.531449,-2.07377 -0.530966,-2.08208 0.284843,-4.89064 0.987294,-3.39896 0.859376,-4.09795 -1.141426,-6.23697 -1.431178,-1.53006 -1.644093,-1.97094 -1.110946,-2.30044 0.400292,-0.24737 2.724617,1.88444 3.329118,3.05342 1.012828,1.95859 1.045831,2.6368 0.240494,4.94186 -0.420574,1.20376 -0.759809,2.6181 -0.753855,3.14293 0.02631,2.32081 0.937795,5.97835 1.990696,7.98829 2.003468,3.8244 1.448997,4.914 -3.590527,7.0555 -3.414707,1.451 -5.302083,1.6152 -7.874015,0.6851 z m -37.01437,-2.8914 c -0.767367,-0.7675 -0.156744,-4.2817 0.743959,-4.2817 0.516929,0 0.572187,1.1503 0.113248,2.3573 -0.222213,0.5845 -0.222213,0.9459 0,1.1682 0.450422,0.4504 0.401422,1.1284 -0.08155,1.1284 -0.221837,0 -0.570884,-0.1675 -0.775658,-0.3722 z m 16.071622,-0.665 c 0,-0.9855 2.714069,-4.7843 4.554182,-6.37455 2.055408,-1.77629 4.899657,-3.13297 7.028827,-3.35273 1.477614,-0.15249 1.758298,-0.10257 1.758298,0.31274 0,0.51994 -1.68632,1.13904 -3.11116,1.14217 -0.918998,0.003 -2.163311,0.79161 -2.163311,1.37273 0,0.54511 -2.234961,3.28024 -2.681606,3.28184 -0.19505,0 -0.444104,-0.232 -0.553453,-0.517 -0.166254,-0.4332 -0.396454,-0.325 -1.405425,0.6601 -0.663634,0.648 -1.529584,1.8585 -1.924332,2.69 -0.762014,1.605 -1.50202,1.9916 -1.50202,0.7847 z m 44.414836,0.3185 c -0.19846,-0.2391 -0.55788,-1.0895 -0.798713,-1.8897 -0.641748,-2.1324 -1.17882,-2.787 -3.346937,-4.0798 -3.618256,-2.15731 -4.765239,-3.24186 -3.425462,-3.23901 0.298629,0 1.015296,0.28914 1.592596,0.6411 0.887321,0.54094 1.183644,0.58438 1.916271,0.28091 0.476651,-0.19742 1.159043,-0.26614 1.516432,-0.15271 0.892801,0.28336 2.072712,2.74182 2.790684,5.81471 0.583466,2.4972 0.489081,3.5089 -0.244871,2.6245 z m -6.380046,-3.6486 c -0.956541,-1.1368 -1.010331,-1.52764 -0.210289,-1.52764 0.576387,0 2.199419,1.62024 2.199419,2.19564 0,0.6406 -1.237611,0.225 -1.98913,-0.668 z m -56.650567,-1.63814 c 0,-0.75661 1.973496,-3.61265 2.496316,-3.61265 0.60052,0 0.26641,1.13823 -0.798114,2.719 -1.18912,1.76579 -1.698202,2.03369 -1.698202,0.89365 z m 45.505233,-0.71691 c -0.357,-0.35695 -0.225946,-0.7239 0.258552,-0.7239 0.255967,0 0.465395,0.20943 0.465395,0.4654 0,0.48454 -0.366949,0.61553 -0.723947,0.2585 z m -2.602097,-4.44594 c -0.594166,-0.24542 -1.309658,-1.7031 -0.977335,-1.99112 0.06316,-0.0547 0.638397,-0.19418 1.278315,-0.30986 1.094828,-0.19794 1.163486,-0.16375 1.163486,0.57936 0,0.69877 0.127667,0.78971 1.108668,0.78971 0.888315,0 1.08818,0.10792 1.005566,0.54297 -0.07761,0.40871 -0.447622,0.55909 -1.496498,0.60821 -0.766368,0.0358 -1.703359,-0.0628 -2.082202,-0.21927 z m -17.150999,-2.01705 c -0.58483,-0.70468 0.02237,-1.26204 0.876769,-0.80477 0.769201,0.41165 1.857902,0.45954 1.434378,0.0631 -0.162113,-0.15175 -1.08827,-0.502 -2.05813,-0.77832 -0.969857,-0.27632 -2.156613,-0.82894 -2.637236,-1.22803 -0.480618,-0.39909 -1.40988,-0.81 -2.065024,-0.9131 -1.320462,-0.20785 -2.066591,-0.69216 -2.066591,-1.34142 0,-0.65987 0.978818,-0.50772 2.237939,0.34787 1.448148,0.98402 3.141957,1.31241 8.078304,1.56604 2.953305,0.15176 3.955852,0.30636 3.955852,0.61014 0,0.23968 -0.541884,0.49115 -1.318618,0.61196 -2.265688,0.35233 -2.42799,0.44594 -2.335035,1.34667 0.08354,0.80957 0.03964,0.83196 -1.804297,0.92085 -1.428901,0.0688 -1.98955,-0.0288 -2.298311,-0.40097 z m 34.48851,-1.63857 c -0.677591,-0.22587 -0.375467,-0.99905 0.390383,-0.99905 0.915061,0 1.731823,0.29171 1.731823,0.61851 0,0.27695 -1.581984,0.56062 -2.122206,0.38054 z m -3.655561,-2.66494 c 0.192158,-0.7656 0.137182,-0.81621 -0.886976,-0.81621 -1.10355,0 -1.425314,-0.47321 -0.768429,-1.13007 0.22436,-0.22438 -0.203219,-0.77333 -1.396183,-1.79251 -2.663703,-2.27566 -2.232509,-3.14824 2.00357,-4.05452 7.061411,-1.5107 8.067088,-1.33847 9.178621,1.57204 0.760227,1.99064 0.439028,2.82073 -1.188376,3.07114 -2.964296,0.45617 -3.371544,0.56121 -3.126418,0.80634 0.140931,0.14093 1.303211,0.29795 2.582847,0.34895 1.820049,0.0725 2.326609,0.19404 2.326609,0.5581 0,0.34244 -0.4287,0.49012 -1.62249,0.55897 -1.149402,0.0662 -1.739175,0.26013 -2.022678,0.6649 -0.302326,0.43163 -0.997473,0.62732 -2.842573,0.80023 l -2.442381,0.22885 z m 4.868231,-4.10059 c 0.926855,-0.27058 1.864844,-0.66464 2.08442,-0.87569 1.005405,-0.96631 -0.85648,-2.35545 -3.15703,-2.35545 -1.286103,0 -1.387977,0.058 -1.334025,0.75881 0.03212,0.41734 -0.0812,0.73148 -0.251853,0.6981 -0.170645,-0.0334 -0.268086,-0.38756 -0.216532,-0.78702 0.08613,-0.66741 0.01067,-0.7097 -0.93079,-0.52149 -2.143638,0.4285 -4.28228,1.12079 -4.28228,1.38622 0,0.7365 0.49176,1.36534 1.365052,1.74551 1.31364,0.57185 4.680586,0.54733 6.723038,-0.049 z m -50.230858,4.00571 c 0.06773,-0.35693 0.431886,-0.60346 0.98524,-0.66701 0.708895,-0.0814 0.85712,0.008 0.770352,0.4654 -0.06773,0.35693 -0.431887,0.60347 -0.98524,0.66701 -0.708895,0.0814 -0.85712,-0.008 -0.770352,-0.4654 z m 15.305023,-0.22292 c -4.86679,-1.30361 -5.161295,-1.55467 -4.427926,-3.77497 0.284374,-0.86095 0.892544,-1.5725 2.17852,-2.54887 0.981206,-0.74497 1.784011,-1.47056 1.784011,-1.61248 0,-0.46201 -1.948185,-0.95964 -5.490248,-1.40238 -3.510436,-0.43878 -5.14555,-0.98921 -5.472936,-1.84237 -0.297267,-0.77467 0.325233,-0.86684 2.516276,-0.37266 1.147585,0.25885 4.669458,0.76935 7.826382,1.13445 3.156926,0.36512 6.691417,0.86184 7.854425,1.10381 1.163005,0.24198 2.646807,0.43996 3.297335,0.43996 1.44514,0 2.167475,0.6751 1.536205,1.43571 -0.346201,0.41715 -0.811322,0.47179 -2.675224,0.31423 -1.240893,-0.10489 -2.256167,-0.12938 -2.256167,-0.0544 0,0.075 0.616095,0.56015 1.369098,1.07823 1.525246,1.04941 2.571335,3.14415 2.236458,4.47837 -0.559181,2.22797 -5.251693,2.96927 -10.276209,1.62342 z m 7.632711,-0.85949 c 1.314708,-0.45013 1.51502,-0.74647 1.214027,-1.79596 -0.421765,-1.47061 -1.055257,-2.18779 -2.62483,-2.97157 -2.710489,-1.35356 -6.758616,-0.9576 -8.552753,0.83653 -1.365139,1.36515 -1.196411,2.44381 0.469267,3.00009 3.625842,1.21089 7.552135,1.59586 9.494289,0.93091 z m -4.948438,-1.46484 c -0.750922,-0.47589 -0.284206,-1.43184 0.699054,-1.43184 1.088943,0 1.837675,0.93988 1.115485,1.40028 -0.576617,0.36757 -1.265398,0.37954 -1.814539,0.0316 z m -21.765445,1.86911 c 0,-0.63219 1.853958,-1.29827 4.885603,-1.75522 3.446801,-0.51956 4.732549,-0.57371 4.732549,-0.19934 0,0.48875 -1.638902,1.00807 -4.621652,1.46447 -1.638887,0.25075 -3.43355,0.53955 -3.988145,0.64178 -0.633547,0.11675 -1.008355,0.0604 -1.008355,-0.15169 z m -0.137285,-8.16625 c 0.118136,-0.37222 0.476068,-1.10521 0.795406,-1.62887 0.321309,-0.52692 0.581129,-1.52969 0.581771,-2.24538 0.0016,-1.57483 0.244227,-2.27478 0.789105,-2.27478 1.080115,0 0.696877,3.18143 -0.663396,5.50716 -0.823733,1.40838 -1.890814,1.86412 -1.502886,0.64187 z m 37.166235,-2.27013 -0.883316,-1.08529 -5.584733,0.64378 c -5.64978,0.65128 -8.608829,0.63145 -11.169466,-0.0749 -0.682579,-0.18826 -1.997675,-0.4285 -2.922439,-0.53381 -1.004128,-0.11432 -1.737872,-0.36189 -1.821621,-0.61457 -0.115188,-0.34752 0.268251,-0.37523 2.14678,-0.15513 1.257859,0.14741 5.428429,0.25163 9.267933,0.23162 5.633829,-0.0295 7.669428,-0.16203 10.548941,-0.68755 5.432797,-0.99151 9.13782,-1.77321 12.686819,-2.67679 3.097799,-0.78869 4.06738,-0.83684 4.06738,-0.20199 0,0.45793 -2.446232,1.15955 -8.622742,2.47324 -3.121384,0.66386 -5.767825,1.29963 -5.88098,1.41278 -0.113156,0.11315 -0.05271,0.61118 0.13434,1.1067 0.621975,1.64782 -0.67091,1.75424 -1.966896,0.1619 z m -18.335608,-2.84334 c -0.213305,-0.0861 -0.387828,-0.4241 -0.387828,-0.75115 0,-0.71925 0.731395,-0.75645 4.639992,-0.23605 2.377595,0.31657 2.873125,0.29432 4.223715,-0.18966 1.177715,-0.42205 2.994922,-0.59574 7.890493,-0.75422 5.151761,-0.16676 6.549024,-0.30756 7.353064,-0.74097 1.349988,-0.72769 4.441938,-1.50636 5.123019,-1.2902 0.858916,0.2726 0.658133,0.68292 -0.453394,0.92654 -0.554595,0.12156 -2.07811,0.69114 -3.385588,1.26573 -2.320197,1.01961 -2.480253,1.04483 -6.670655,1.05116 -2.361379,0.004 -5.968838,0.20865 -8.016574,0.45572 -3.594514,0.43371 -9.518992,0.58481 -10.316244,0.2631 z m 9.957915,-3.06564 c -0.101051,-0.26333 -0.13157,-0.51585 -0.06783,-0.56117 0.06374,-0.0453 2.216597,-0.45814 4.784122,-0.91742 4.808778,-0.86015 7.724217,-1.05602 8.042934,-0.54032 0.324858,0.52563 -0.863403,0.85861 -3.713534,1.04064 -1.535802,0.0981 -3.683169,0.46602 -4.771928,0.81768 -2.384696,0.77019 -4.016305,0.83149 -4.273764,0.16059 z" style="" fill="#000000"></path></g></svg>