<?xml version="1.0" encoding="UTF-8"?><svg xmlns="http://www.w3.org/2000/svg" xmlns:xlink="http://www.w3.org/1999/xlink" version="1.1" x="0px" y="0px" width="100px" height="100px" viewBox="0 0 100 100" xml:space="preserve"><g id="_x37_7_Essential_Icons"><path id="View" d="M50 34c-8.8 0-16 7.2-16 16s7.2 16 16 16 16-7.2 16-16-7.2-16-16-16zm0 28c-6.6 0-12-5.4-12-12s5.4-12 12-12 12 5.4 12 12-5.4 12-12 12zm44.4-13.4l-8.6-8.7C76.3 30.3 63.6 25 50 25s-26.3 5.3-35.8 14.9l-8.6 8.7c-.8.8-.8 2 0 2.8l8.6 8.7C23.7 69.7 36.4 75 50 75s26.3-5.3 35.8-14.9l8.6-8.7c.8-.8.8-2 0-2.8zM83 57.3C74.2 66.1 62.5 71 50 71s-24.2-4.9-33-13.7L9.8 50l7.2-7.3C25.8 33.9 37.5 29 50 29s24.2 4.9 33 13.7l7.2 7.3-7.2 7.3z"/></g><g id="Info"><path fill="#00F" d="M944-790V894H-840V-790H944m8-8H-848V902H952V-798z" id="BORDER"/></g><metadata><rdf:RDF xmlns:rdf="http://www.w3.org/1999/02/22-rdf-syntax-ns#" xmlns:rdfs="http://www.w3.org/2000/01/rdf-schema#" xmlns:dc="http://purl.org/dc/elements/1.1/"><rdf:Description about="https://iconscout.com/legal#licenses" dc:title="essential,s,view" dc:description="essential,s,view" dc:publisher="Iconscout" dc:date="2017-09-15" dc:format="image/svg+xml" dc:language="en"><dc:creator><rdf:Bag><rdf:li>Bryn Taylor</rdf:li></rdf:Bag></dc:creator></rdf:Description></rdf:RDF></metadata></svg>